<svg width="256" height="256" fill="none" xmlns="http://www.w3.org/2000/svg">
<g clip-path="url(#clip0_135_784)">
<path d="M49 195L208 195C213.523 195 218 190.523 218 185L218 71C218 65.4772 213.523 61 208 61L49 61C43.4772 61 39 65.4772 39 71L39 185C39 190.523 43.4771 195 49 195Z" stroke="#E92980" stroke-width="7" stroke-linecap="round"/>
<path d="M39.4997 90.5002H217" stroke="#E92980" stroke-width="7" stroke-linecap="round"/>
<ellipse cx="56.9968" cy="76.0002" rx="5.99691" ry="6" stroke="#E92980" stroke-width="5"/>
<ellipse cx="78.9968" cy="76.0002" rx="5.99691" ry="6" stroke="#E92980" stroke-width="5"/>
<ellipse cx="100.997" cy="76.0002" rx="5.99691" ry="6" stroke="#E92980" stroke-width="5"/>
<path d="M52.5119 123H65.3639V118.95H61.2329V103.695H57.1559L51.9449 108.582L54.6719 111.498L55.8329 110.445C56.3459 109.959 56.5889 109.419 56.5889 109.419H56.6429C56.6429 109.419 56.6159 110.175 56.6159 110.904V118.95H52.5119V123ZM77.6165 123.324C83.0975 123.324 84.8795 118.842 84.8795 113.307C84.8795 107.772 83.0975 103.371 77.6165 103.371C72.1355 103.371 70.3535 107.772 70.3535 113.307C70.3535 118.842 72.1355 123.324 77.6165 123.324ZM77.6165 119.004C75.7535 119.004 75.2135 116.466 75.2135 113.307C75.2135 110.175 75.7535 107.691 77.6165 107.691C79.4795 107.691 80.0195 110.175 80.0195 113.307C80.0195 116.466 79.4795 119.004 77.6165 119.004ZM90.759 123H103.611V118.95H99.48V103.695H95.403L90.192 108.582L92.919 111.498L94.08 110.445C94.593 109.959 94.836 109.419 94.836 109.419H94.89C94.89 109.419 94.863 110.175 94.863 110.904V118.95H90.759V123ZM115.864 123.324C121.345 123.324 123.127 118.842 123.127 113.307C123.127 107.772 121.345 103.371 115.864 103.371C110.383 103.371 108.601 107.772 108.601 113.307C108.601 118.842 110.383 123.324 115.864 123.324ZM115.864 119.004C114.001 119.004 113.461 116.466 113.461 113.307C113.461 110.175 114.001 107.691 115.864 107.691C117.727 107.691 118.267 110.175 118.267 113.307C118.267 116.466 117.727 119.004 115.864 119.004ZM129.006 123H141.858V118.95H137.727V103.695H133.65L128.439 108.582L131.166 111.498L132.327 110.445C132.84 109.959 133.083 109.419 133.083 109.419H133.137C133.137 109.419 133.11 110.175 133.11 110.904V118.95H129.006V123ZM154.111 123.324C159.592 123.324 161.374 118.842 161.374 113.307C161.374 107.772 159.592 103.371 154.111 103.371C148.63 103.371 146.848 107.772 146.848 113.307C146.848 118.842 148.63 123.324 154.111 123.324ZM154.111 119.004C152.248 119.004 151.708 116.466 151.708 113.307C151.708 110.175 152.248 107.691 154.111 107.691C155.974 107.691 156.514 110.175 156.514 113.307C156.514 116.466 155.974 119.004 154.111 119.004ZM52.5119 153H65.3639V148.95H61.2329V133.695H57.1559L51.9449 138.582L54.6719 141.498L55.8329 140.445C56.3459 139.959 56.5889 139.419 56.5889 139.419H56.6429C56.6429 139.419 56.6159 140.175 56.6159 140.904V148.95H52.5119V153ZM77.6165 153.324C83.0975 153.324 84.8795 148.842 84.8795 143.307C84.8795 137.772 83.0975 133.371 77.6165 133.371C72.1355 133.371 70.3535 137.772 70.3535 143.307C70.3535 148.842 72.1355 153.324 77.6165 153.324ZM77.6165 149.004C75.7535 149.004 75.2135 146.466 75.2135 143.307C75.2135 140.175 75.7535 137.691 77.6165 137.691C79.4795 137.691 80.0195 140.175 80.0195 143.307C80.0195 146.466 79.4795 149.004 77.6165 149.004ZM97.887 153.324C103.368 153.324 105.15 148.842 105.15 143.307C105.15 137.772 103.368 133.371 97.887 133.371C92.406 133.371 90.624 137.772 90.624 143.307C90.624 148.842 92.406 153.324 97.887 153.324ZM97.887 149.004C96.024 149.004 95.484 146.466 95.484 143.307C95.484 140.175 96.024 137.691 97.887 137.691C99.75 137.691 100.29 140.175 100.29 143.307C100.29 146.466 99.75 149.004 97.887 149.004ZM111.03 153H123.882V148.95H119.751V133.695H115.674L110.463 138.582L113.19 141.498L114.351 140.445C114.864 139.959 115.107 139.419 115.107 139.419H115.161C115.161 139.419 115.134 140.175 115.134 140.904V148.95H111.03V153ZM136.134 153.324C141.615 153.324 143.397 148.842 143.397 143.307C143.397 137.772 141.615 133.371 136.134 133.371C130.653 133.371 128.871 137.772 128.871 143.307C128.871 148.842 130.653 153.324 136.134 153.324ZM136.134 149.004C134.271 149.004 133.731 146.466 133.731 143.307C133.731 140.175 134.271 137.691 136.134 137.691C137.997 137.691 138.537 140.175 138.537 143.307C138.537 146.466 137.997 149.004 136.134 149.004ZM59.6399 183.324C65.1209 183.324 66.9029 178.842 66.9029 173.307C66.9029 167.772 65.1209 163.371 59.6399 163.371C54.1589 163.371 52.3769 167.772 52.3769 173.307C52.3769 178.842 54.1589 183.324 59.6399 183.324ZM59.6399 179.004C57.7769 179.004 57.2369 176.466 57.2369 173.307C57.2369 170.175 57.7769 167.691 59.6399 167.691C61.5029 167.691 62.0429 170.175 62.0429 173.307C62.0429 176.466 61.5029 179.004 59.6399 179.004ZM79.9104 183.324C85.3914 183.324 87.1734 178.842 87.1734 173.307C87.1734 167.772 85.3914 163.371 79.9104 163.371C74.4294 163.371 72.6474 167.772 72.6474 173.307C72.6474 178.842 74.4294 183.324 79.9104 183.324ZM79.9104 179.004C78.0474 179.004 77.5074 176.466 77.5074 173.307C77.5074 170.175 78.0474 167.691 79.9104 167.691C81.7734 167.691 82.3134 170.175 82.3134 173.307C82.3134 176.466 81.7734 179.004 79.9104 179.004ZM93.053 183H105.905V178.95H101.774V163.695H97.697L92.486 168.582L95.213 171.498L96.374 170.445C96.887 169.959 97.13 169.419 97.13 169.419H97.184C97.184 169.419 97.157 170.175 97.157 170.904V178.95H93.053V183Z" fill="#E92980"/>
</g>
<defs>
<clipPath id="clip0_135_784">
<rect width="256" height="256" fill="white"/>
</clipPath>
</defs>
</svg>
