<svg width="256" height="256" fill="none" xmlns="http://www.w3.org/2000/svg">
<g clip-path="url(#clip0_135_720)">
<path fill-rule="evenodd" clip-rule="evenodd" d="M51.7391 192.108C51.128 194.389 52.4814 196.733 54.7621 197.344L85.4408 205.565C87.7214 206.176 90.0656 204.822 90.6767 202.542L107.461 139.9C108.981 134.229 108.074 125.703 103.443 119.804L108.116 94.6743C116.391 92.7325 116.133 82.5158 108.809 80.4608L97.2176 77.3549C90.7745 75.874 84.6448 83.7085 90.8123 90.0379L82.1928 114.11C74.2666 116.645 70.0437 123.795 68.5239 129.467L51.7391 192.108Z" stroke="#E92980" stroke-width="7"/>
<path d="M67.3171 131.44L106.888 142.043" stroke="#E92980" stroke-width="7"/>
<path d="M54.9271 179.162L93.5642 189.515" stroke="#E92980" stroke-width="7"/>
<path fill-rule="evenodd" clip-rule="evenodd" d="M167.05 188.885C167.953 191.067 170.453 192.103 172.635 191.2L201.981 179.054C204.163 178.151 205.199 175.65 204.297 173.468L179.495 113.547C177.249 108.122 171.342 101.909 164.077 100.046L152.492 77.2617C157.877 70.6849 151.454 62.7351 144.392 65.5613L133.304 70.1506C127.29 72.8963 127.194 82.8434 135.94 84.1126L143.749 108.459C139.002 115.294 140.003 123.538 142.248 128.964L167.05 188.885Z" stroke="#E92980" stroke-width="7"/>
<path d="M142.491 131.263L180.343 115.596" stroke="#E92980" stroke-width="7"/>
<path d="M161.701 176.672L198.66 161.374" stroke="#E92980" stroke-width="7"/>
<path d="M108.025 67.384L98.151 60.6685" stroke="#E92980" stroke-width="7" stroke-linecap="round"/>
<path d="M116.233 60.1693L112.686 46.9322" stroke="#E92980" stroke-width="7" stroke-linecap="round"/>
<path d="M126.292 58.8079L128.843 48.5284" stroke="#E92980" stroke-width="7" stroke-linecap="round"/>
</g>
<defs>
<clipPath id="clip0_135_720">
<rect width="256" height="256" fill="white"/>
</clipPath>
</defs>
</svg>
