<svg width="1030" height="349" fill="none" xmlns="http://www.w3.org/2000/svg">
<ellipse cx="803.824" cy="312.07" rx="8.18898" ry="8.18555" fill="#CFFF00"/>
<path fill-rule="evenodd" clip-rule="evenodd" d="M162.237 249.711C141.795 249.711 126.113 264.761 126.113 285.214C126.113 305.536 141.279 320.33 162.237 320.33C183.323 320.33 198.491 305.536 198.491 285.214C198.491 264.888 182.806 249.711 162.237 249.711ZM162.238 304.637C151.697 304.637 143.854 296.66 143.854 285.215C143.854 273.636 151.566 265.403 162.238 265.403C172.907 265.403 180.75 273.765 180.75 285.215C180.75 296.66 172.907 304.637 162.238 304.637Z" fill="white"/>
<path fill-rule="evenodd" clip-rule="evenodd" d="M471.559 257.804C466.062 251.69 457.322 249.711 449.792 249.711C433.699 249.711 423.277 263.2 423.277 281.107V320.33H440.035V281.107C440.035 272.533 443.328 265.277 451.683 265.277C459.642 265.277 463.292 272.489 463.292 281.107V320.33H479.998V281.107C479.998 272.445 482.903 265.277 491.61 265.277C499.613 265.277 503.263 272.577 503.263 281.107V320.418H519.972V281.107C519.972 263.166 508.539 249.711 493.501 249.711C484.863 249.711 477.011 251.954 471.559 257.804Z" fill="white"/>
<path fill-rule="evenodd" clip-rule="evenodd" d="M582.457 257.804C576.96 251.69 568.22 249.711 560.69 249.711C544.596 249.711 534.175 263.2 534.175 281.107V320.33H550.933V281.107C550.933 272.533 554.226 265.277 562.581 265.277C570.54 265.277 574.19 272.489 574.19 281.107V320.33H590.896V281.107C590.896 272.445 593.801 265.277 602.508 265.277C610.511 265.277 614.161 272.577 614.161 281.107V320.418H630.87V281.107C630.87 263.166 619.437 249.711 604.399 249.711C595.761 249.711 587.909 251.954 582.457 257.804Z" fill="white"/>
<path fill-rule="evenodd" clip-rule="evenodd" d="M393.75 258.83C379.657 245.33 357.017 247.913 345.293 263.205C335.2 276.369 336.103 296.932 346.084 308.145C358.969 322.619 382.397 324.613 393.75 311.433V319.621H410.46V250.672H393.75V258.83ZM355.846 285.165C355.846 296.556 363.586 304.495 373.987 304.495C384.515 304.495 392.255 296.556 392.255 285.165C392.255 273.769 384.515 265.447 373.987 265.447C363.457 265.447 355.846 273.641 355.846 285.165Z" fill="white"/>
<path fill-rule="evenodd" clip-rule="evenodd" d="M956.682 258.831C942.589 245.33 919.948 247.912 908.224 263.205C898.131 276.369 899.034 296.932 909.015 308.145C921.901 322.62 945.33 324.613 956.682 311.432V319.621H973.392V250.672H956.682V258.831ZM918.778 285.165C918.778 296.556 926.517 304.495 936.918 304.495C947.447 304.495 955.187 296.556 955.187 285.165C955.187 273.769 947.447 265.447 936.918 265.447C926.388 265.447 918.778 273.641 918.778 285.165Z" fill="#CFFF00"/>
<path fill-rule="evenodd" clip-rule="evenodd" d="M674.447 285.241C674.447 264.608 688.514 249.8 708.496 249.8C727.821 249.8 738.207 264.214 738.207 281.956C738.207 284.782 738.031 288.319 737.418 291.082C737.431 291.051 691.936 291.134 691.948 291.134C693.575 301.291 702.364 305.996 711.56 305.996C722.34 305.996 731.084 298.609 731.084 298.609L737.547 310.613C737.547 310.613 727.164 320.331 710.468 320.331C688.251 320.331 674.447 304.298 674.447 285.241ZM721.454 276.711C721.156 268.346 716.353 262.772 707.735 262.772C699.643 262.772 693.444 268.488 691.993 276.711H721.454Z" fill="white"/>
<path fill-rule="evenodd" clip-rule="evenodd" d="M278.164 319.621H278.17L278.192 250.672H261.461L261.461 252.614H261.461V258.809C247.366 245.333 224.744 247.921 213.025 263.205C202.933 276.369 203.835 296.932 213.817 308.145C226.694 322.61 250.1 324.61 261.461 311.459V319.583C261.461 326.883 253.414 334.71 237.935 333.259C227.602 332.29 222.237 328.51 217.444 324.904C216.213 327.059 210.673 337.964 210.673 337.964C214.492 341.06 220.654 345.659 234.593 348.297C248.416 350.913 277.673 346.871 278.164 319.621ZM241.719 304.495C231.318 304.495 223.578 296.556 223.578 285.165C223.578 273.641 231.189 265.447 241.719 265.447C252.248 265.447 259.987 273.769 259.987 285.165C259.987 296.556 252.248 304.495 241.719 304.495Z" fill="white"/>
<path fill-rule="evenodd" clip-rule="evenodd" d="M654.131 246.281C659.96 246.281 664.685 241.556 664.685 235.727C664.685 229.899 659.96 225.174 654.131 225.174C648.303 225.174 643.578 229.899 643.578 235.727C643.578 241.556 648.303 246.281 654.131 246.281ZM662.487 320.329V253.403H645.777V320.329H662.487Z" fill="white"/>
<path fill-rule="evenodd" clip-rule="evenodd" d="M97.7722 277.022L97.7942 320.286H81.0847L81.0847 279.772C81.0847 258.565 93.309 249.711 107.191 249.711C117.584 249.711 122.293 254.368 126.112 257.464C126.112 257.464 119.466 266.436 117.99 268.459C115.449 266.121 112.84 265.61 112.645 265.54C111.465 265.114 109.696 265.158 109.696 265.158C103.688 265.158 97.7722 269.207 97.7722 277.022Z" fill="white"/>
<path fill-rule="evenodd" clip-rule="evenodd" d="M308.663 277.022L308.685 320.286H291.976L291.976 279.772C291.976 258.565 304.2 249.711 318.082 249.711C328.475 249.711 333.184 254.368 337.003 257.464C337.003 257.464 330.356 266.436 328.881 268.459C326.34 266.121 323.731 265.61 323.536 265.54C322.356 265.114 320.587 265.158 320.587 265.158C314.579 265.158 308.663 269.207 308.663 277.022Z" fill="white"/>
<path fill-rule="evenodd" clip-rule="evenodd" d="M766.414 277.022L766.436 320.286H749.727L749.727 279.772C749.727 258.565 761.951 249.711 775.833 249.711C786.226 249.711 790.935 254.368 794.754 257.464C794.754 257.464 788.107 266.436 786.632 268.459C784.091 266.121 781.482 265.61 781.287 265.54C780.107 265.114 778.338 265.158 778.338 265.158C772.33 265.158 766.414 269.207 766.414 277.022Z" fill="white"/>
<path fill-rule="evenodd" clip-rule="evenodd" d="M1001.58 277.022L1001.6 320.286H984.89L984.89 279.772C984.89 258.565 997.114 249.711 1011 249.711C1021.39 249.711 1026.1 254.368 1029.92 257.464C1029.92 257.464 1023.27 266.436 1021.8 268.459C1019.25 266.121 1016.65 265.61 1016.45 265.54C1015.27 265.114 1013.5 265.158 1013.5 265.158C1007.49 265.158 1001.58 269.207 1001.58 277.022Z" fill="#CFFF00"/>
<path fill-rule="evenodd" clip-rule="evenodd" d="M840.75 225H824.04V285.136C824.04 285.162 824.04 285.188 824.04 285.215C824.04 285.241 824.04 285.268 824.04 285.294V285.77H824.044C824.317 305.806 839.398 320.331 860.165 320.331C881.25 320.331 896.418 305.537 896.418 285.215C896.418 264.888 880.734 249.711 860.165 249.711C852.937 249.711 846.304 251.593 840.75 254.929V225ZM841.781 285.215C841.781 296.66 849.624 304.637 860.165 304.637C870.834 304.637 878.678 296.66 878.678 285.215C878.678 273.765 870.834 265.402 860.165 265.402C849.493 265.402 841.781 273.635 841.781 285.215Z" fill="#CFFF00"/>
<path fill-rule="evenodd" clip-rule="evenodd" d="M16.7095 349H0V284.828V282.69H0.0566403C1.08141 263.476 15.9086 249.712 36.1246 249.712C57.2097 249.712 72.3783 264.506 72.3783 284.828C72.3783 305.154 56.6936 320.331 36.1246 320.331C28.897 320.331 22.2643 318.45 16.7095 315.113V349ZM17.741 284.827C17.741 273.381 25.5845 265.405 36.1248 265.405C46.7943 265.405 54.6377 273.381 54.6377 284.827C54.6377 296.277 46.7943 304.639 36.1248 304.639C25.4533 304.639 17.741 296.406 17.741 284.827Z" fill="white"/>
<path d="M875.031 119.828H796.174C787.82 119.828 779.738 122.795 773.368 128.2L761.419 138.338C760.465 139.148 759 138.47 759 137.218V64.75C759 32.3033 785.303 6 817.75 6H867.688C900.134 6 926.438 32.3033 926.438 64.75V75.7656" stroke="white" stroke-width="11.75" stroke-linecap="round"/>
<path d="M1024.11 195.375V130.535C1024.11 101.503 1000.57 77.9688 971.544 77.9688H925.22C897.096 77.9688 874.297 100.768 874.297 128.892C874.297 157.016 897.096 179.815 925.22 179.815H990.849C998.323 179.815 1005.55 182.47 1011.25 187.305L1021.95 196.377C1022.8 197.101 1024.11 196.494 1024.11 195.375Z" stroke="#CFFF00" stroke-width="11.75" stroke-linecap="round"/>
<path fill-rule="evenodd" clip-rule="evenodd" d="M975.914 114.888C984.01 124.552 974.291 140.529 952.855 154.542C952.561 154.735 952.029 154.735 951.783 154.542C929.934 140.403 920.438 124.637 928.605 114.888C935.486 106.461 947.389 112.813 952.221 117.577C957.479 112.497 968.118 105.536 975.914 114.888Z" stroke="#CFFF00" stroke-width="11.75"/>
<path d="M853.734 41.25L828.031 88.9844" stroke="white" stroke-width="11.75" stroke-linecap="square"/>
<path d="M813.344 47.8594L786.906 62.5469L813.344 78.7031" stroke="white" stroke-width="11.75" stroke-linecap="square" stroke-linejoin="bevel"/>
<path d="M868.422 47.8594L894.859 62.5469L868.422 78.7031" stroke="white" stroke-width="11.75" stroke-linecap="square" stroke-linejoin="bevel"/>
</svg>
