<svg width="1030" height="124" fill="none" xmlns="http://www.w3.org/2000/svg">
<ellipse cx="803.824" cy="87.0703" rx="8.18898" ry="8.18555" fill="#CFFF00"/>
<path fill-rule="evenodd" clip-rule="evenodd" d="M162.237 24.7109C141.795 24.7109 126.113 39.761 126.113 60.2143C126.113 80.5364 141.279 95.3304 162.237 95.3304C183.323 95.3304 198.491 80.5364 198.491 60.2143C198.491 39.8879 182.806 24.7109 162.237 24.7109ZM162.238 79.6373C151.697 79.6373 143.854 71.6604 143.854 60.2147C143.854 48.6356 151.566 40.4026 162.238 40.4026C172.907 40.4026 180.75 48.7647 180.75 60.2147C180.75 71.6604 172.907 79.6373 162.238 79.6373Z" fill="white"/>
<path fill-rule="evenodd" clip-rule="evenodd" d="M471.559 32.8043C466.062 26.6897 457.322 24.7109 449.792 24.7109C433.699 24.7109 423.277 38.1997 423.277 56.1071V95.3304H440.035V56.1071C440.035 47.5325 443.328 40.2771 451.683 40.2771C459.642 40.2771 463.292 47.4886 463.292 56.1071V95.3304H479.998V56.1071C479.998 47.4446 482.903 40.2771 491.61 40.2771C499.613 40.2771 503.263 47.5765 503.263 56.1071V95.4183H519.972V56.1071C519.972 38.1664 508.539 24.7109 493.501 24.7109C484.863 24.7109 477.011 26.9535 471.559 32.8043Z" fill="white"/>
<path fill-rule="evenodd" clip-rule="evenodd" d="M582.457 32.8043C576.96 26.6897 568.22 24.7109 560.69 24.7109C544.596 24.7109 534.175 38.1997 534.175 56.1071V95.3304H550.933V56.1071C550.933 47.5325 554.226 40.2771 562.581 40.2771C570.54 40.2771 574.19 47.4886 574.19 56.1071V95.3304H590.896V56.1071C590.896 47.4446 593.801 40.2771 602.508 40.2771C610.511 40.2771 614.161 47.5765 614.161 56.1071V95.4183H630.87V56.1071C630.87 38.1664 619.437 24.7109 604.399 24.7109C595.761 24.7109 587.909 26.9535 582.457 32.8043Z" fill="white"/>
<path fill-rule="evenodd" clip-rule="evenodd" d="M393.75 33.8301C379.657 20.3299 357.017 22.9127 345.293 38.205C335.2 51.3693 336.103 71.9317 346.084 83.1447C358.969 97.6193 382.397 99.6128 393.75 86.4332V94.6209H410.46V25.6724H393.75V33.8301ZM355.846 60.1648C355.846 71.5558 363.586 79.4947 373.987 79.4947C384.515 79.4947 392.255 71.5558 392.255 60.1648C392.255 48.7695 384.515 40.4473 373.987 40.4473C363.457 40.4473 355.846 48.641 355.846 60.1648Z" fill="white"/>
<path fill-rule="evenodd" clip-rule="evenodd" d="M956.682 33.8314C942.589 20.3297 919.948 22.9122 908.224 38.205C898.131 51.3693 899.034 71.9317 909.015 83.1447C921.901 97.6199 945.33 99.6129 956.682 86.4316V94.6209H973.392V25.6724H956.682V33.8314ZM918.778 60.1648C918.778 71.5558 926.517 79.4947 936.918 79.4947C947.447 79.4947 955.187 71.5558 955.187 60.1648C955.187 48.7695 947.447 40.4473 936.918 40.4473C926.388 40.4473 918.778 48.641 918.778 60.1648Z" fill="#CFFF00"/>
<path fill-rule="evenodd" clip-rule="evenodd" d="M674.447 60.2414C674.447 39.6081 688.514 24.7998 708.496 24.7998C727.821 24.7998 738.207 39.2138 738.207 56.9559C738.207 59.7817 738.031 63.3195 737.418 66.0819C737.431 66.051 691.936 66.1344 691.948 66.1337C693.575 76.2913 702.364 80.9963 711.56 80.9963C722.34 80.9963 731.084 73.609 731.084 73.609L737.547 85.6134C737.547 85.6134 727.164 95.3313 710.468 95.3313C688.251 95.3313 674.447 79.2977 674.447 60.2414ZM721.454 51.7111C721.156 43.3463 716.353 37.7719 707.735 37.7719C699.643 37.7719 693.444 43.4883 691.993 51.7111H721.454Z" fill="white"/>
<path fill-rule="evenodd" clip-rule="evenodd" d="M278.164 94.6209H278.17L278.192 25.6724H261.461L261.461 27.6136H261.461V33.8089C247.366 20.3326 224.744 22.9207 213.025 38.205C202.933 51.3693 203.835 71.9317 213.817 83.1447C226.694 97.6099 250.1 99.6102 261.461 86.459V94.5834C261.461 101.883 253.414 109.71 237.935 108.259C227.602 107.29 222.237 103.51 217.444 99.904C216.213 102.059 210.673 112.964 210.673 112.964C214.492 116.06 220.654 120.659 234.593 123.297C248.416 125.913 277.673 121.871 278.164 94.6209ZM241.719 79.4947C231.318 79.4947 223.578 71.5558 223.578 60.1648C223.578 48.641 231.189 40.4473 241.719 40.4473C252.248 40.4473 259.987 48.7695 259.987 60.1648C259.987 71.5558 252.248 79.4947 241.719 79.4947Z" fill="white"/>
<path fill-rule="evenodd" clip-rule="evenodd" d="M654.131 21.2805C659.96 21.2805 664.685 16.5556 664.685 10.7272C664.685 4.89872 659.96 0.173828 654.131 0.173828C648.303 0.173828 643.578 4.89872 643.578 10.7272C643.578 16.5556 648.303 21.2805 654.131 21.2805ZM662.487 95.3292V28.4034H645.777V95.3292H662.487Z" fill="white"/>
<path fill-rule="evenodd" clip-rule="evenodd" d="M97.7722 52.022L97.7942 95.2861H81.0847L81.0847 54.7721C81.0847 33.5653 93.309 24.7107 107.191 24.7107C117.584 24.7107 122.293 29.368 126.112 32.4639C126.112 32.4639 119.466 41.4364 117.99 43.4591C115.449 41.1209 112.84 40.6103 112.645 40.54C111.465 40.1144 109.696 40.1585 109.696 40.1585C103.688 40.1585 97.7722 44.2066 97.7722 52.022Z" fill="white"/>
<path fill-rule="evenodd" clip-rule="evenodd" d="M308.663 52.022L308.685 95.2861H291.976L291.976 54.7721C291.976 33.5653 304.2 24.7107 318.082 24.7107C328.475 24.7107 333.184 29.368 337.003 32.4639C337.003 32.4639 330.356 41.4364 328.881 43.4591C326.34 41.1209 323.731 40.6103 323.536 40.54C322.356 40.1144 320.587 40.1585 320.587 40.1585C314.579 40.1585 308.663 44.2066 308.663 52.022Z" fill="white"/>
<path fill-rule="evenodd" clip-rule="evenodd" d="M766.414 52.022L766.436 95.2861H749.727L749.727 54.7721C749.727 33.5653 761.951 24.7107 775.833 24.7107C786.226 24.7107 790.935 29.368 794.754 32.4639C794.754 32.4639 788.107 41.4364 786.632 43.4591C784.091 41.1209 781.482 40.6103 781.287 40.54C780.107 40.1144 778.338 40.1585 778.338 40.1585C772.33 40.1585 766.414 44.2066 766.414 52.022Z" fill="white"/>
<path fill-rule="evenodd" clip-rule="evenodd" d="M1001.58 52.022L1001.6 95.2861H984.89L984.89 54.7721C984.89 33.5653 997.114 24.7107 1011 24.7107C1021.39 24.7107 1026.1 29.368 1029.92 32.4639C1029.92 32.4639 1023.27 41.4364 1021.8 43.4591C1019.25 41.1209 1016.65 40.6103 1016.45 40.54C1015.27 40.1144 1013.5 40.1585 1013.5 40.1585C1007.49 40.1585 1001.58 44.2066 1001.58 52.022Z" fill="#CFFF00"/>
<path fill-rule="evenodd" clip-rule="evenodd" d="M840.75 0H824.04V60.1358C824.04 60.1621 824.04 60.1883 824.04 60.2146C824.04 60.2412 824.04 60.2678 824.04 60.2943V60.7696H824.044C824.317 80.8055 839.398 95.3307 860.165 95.3307C881.25 95.3307 896.418 80.5367 896.418 60.2146C896.418 39.8883 880.734 24.7113 860.165 24.7113C852.937 24.7113 846.304 26.5927 840.75 29.9291V0ZM841.781 60.2145C841.781 71.6602 849.624 79.6371 860.165 79.6371C870.834 79.6371 878.678 71.6602 878.678 60.2145C878.678 48.7645 870.834 40.4024 860.165 40.4024C849.493 40.4024 841.781 48.6354 841.781 60.2145Z" fill="#CFFF00"/>
<path fill-rule="evenodd" clip-rule="evenodd" d="M16.7095 124H0V59.8276V57.6898H0.0566403C1.08141 38.4763 15.9086 24.7115 36.1246 24.7115C57.2097 24.7115 72.3783 39.5055 72.3783 59.8276C72.3783 80.154 56.6936 95.331 36.1246 95.331C28.897 95.331 22.2643 93.4496 16.7095 90.1131V124ZM17.741 59.8271C17.741 48.3814 25.5845 40.4045 36.1248 40.4045C46.7943 40.4045 54.6377 48.3814 54.6377 59.8271C54.6377 71.2771 46.7943 79.6392 36.1248 79.6392C25.4533 79.6392 17.741 71.4062 17.741 59.8271Z" fill="white"/>
</svg>
