<svg width="233" height="66" fill="none" xmlns="http://www.w3.org/2000/svg">
<path fill-rule="evenodd" clip-rule="evenodd" d="M25.6066 17.5942C22.6915 14.3513 18.0561 13.3019 14.0627 13.3019C5.52721 13.3019 0.00012207 20.4557 0.00012207 29.9531V50.7555H8.8878V29.9531C8.8878 25.4055 10.6345 21.5575 15.0655 21.5575C19.2866 21.5575 21.2223 25.3822 21.2223 29.9531V50.7555H30.0824V29.9531C30.0824 25.3589 31.6234 21.5575 36.241 21.5575C40.4854 21.5575 42.4211 25.4288 42.4211 29.9531V50.8021H51.2831V29.9531C51.2831 20.4381 45.2195 13.3019 37.2438 13.3019C32.6628 13.3019 28.4984 14.4913 25.6066 17.5942Z" fill="#CFFF00"/>
<path fill-rule="evenodd" clip-rule="evenodd" d="M167.189 34.0343C167.189 39.8879 169.708 42.4998 173.487 42.4998C176.605 42.4998 179.799 41.0306 179.799 34.0343V15.2142H188.646L188.646 34.8868C188.646 44.6776 181.766 50.7555 173.51 50.7555C163.868 50.7555 158.328 43.6648 158.328 34.2112V15.2142H167.189V34.0343Z" fill="#CFFF00"/>
<path fill-rule="evenodd" clip-rule="evenodd" d="M202.876 65.9606H194.014V31.9646C194.014 31.9516 194.014 31.9387 194.014 31.9258C194.014 31.9127 194.014 31.8996 194.014 31.8866V30.7925H194.044C194.588 20.6021 202.452 13.3017 213.173 13.3017C224.356 13.3017 232.401 21.1478 232.401 31.9258C232.401 42.706 224.082 50.7553 213.173 50.7553C209.34 50.7553 205.823 49.7574 202.876 47.988V65.9606ZM203.424 31.926C203.424 25.8557 207.583 21.6251 213.174 21.6251C218.832 21.6251 222.992 25.8557 222.992 31.926C222.992 37.9986 218.832 42.4335 213.174 42.4335C207.514 42.4335 203.424 38.0671 203.424 31.926Z" fill="#CFFF00"/>
<path fill-rule="evenodd" clip-rule="evenodd" d="M56.0162 32.1453C56.0162 21.2022 63.4766 13.3485 74.0744 13.3485C84.3236 13.3485 89.8317 20.9931 89.8317 30.4027C89.8317 31.9014 89.7385 33.7777 89.4134 35.2428C89.4203 35.2264 65.2917 35.2706 65.298 35.2703C66.1609 40.6575 70.8222 43.1528 75.6992 43.1528C81.4165 43.1528 86.0537 39.2349 86.0537 39.2349L89.4819 45.6015C89.4819 45.6015 83.975 50.7555 75.1203 50.7555C63.3371 50.7555 56.0162 42.2519 56.0162 32.1453ZM80.9463 27.621C80.7883 23.1846 78.2411 20.2282 73.6702 20.2282C69.3785 20.2282 66.0908 23.2599 65.3212 27.621H80.9463Z" fill="#CFFF00"/>
<path fill-rule="evenodd" clip-rule="evenodd" d="M92.8651 32.1453C92.8651 21.2022 100.325 13.3485 110.923 13.3485C121.173 13.3485 126.681 20.9931 126.681 30.4027C126.681 31.9014 126.587 33.7777 126.262 35.2428C126.269 35.2264 102.141 35.2706 102.147 35.2703C103.01 40.6575 107.671 43.1528 112.548 43.1528C118.265 43.1528 122.903 39.2349 122.903 39.2349L126.331 45.6015C126.331 45.6015 120.824 50.7555 111.969 50.7555C100.186 50.7555 92.8651 42.2519 92.8651 32.1453ZM117.795 27.621C117.637 23.1846 115.09 20.2282 110.519 20.2282C106.228 20.2282 102.94 23.2599 102.17 27.621H117.795Z" fill="#CFFF00"/>
<path fill-rule="evenodd" clip-rule="evenodd" d="M140.269 22.1632L140.265 36.2705C140.265 40.4154 143.402 42.5624 146.589 42.5624C146.589 42.5624 147.527 42.5857 148.153 42.36C148.163 42.3565 148.184 42.3507 148.217 42.3422C148.522 42.2618 149.769 41.9328 150.987 40.8119C151.77 41.8846 155.295 46.6433 155.295 46.6433C155.131 46.7762 154.964 46.9145 154.792 47.0565C152.845 48.6689 150.326 50.7553 145.26 50.7553C137.897 50.7553 131.414 46.0591 131.414 34.8119L131.414 7.37229e-05H140.276L140.272 13.3012H167.177V22.1632H140.269Z" fill="#CFFF00"/>
</svg>
