<svg width="5572" height="1415" fill="none" xmlns="http://www.w3.org/2000/svg">
<path fill-rule="evenodd" clip-rule="evenodd" d="M1284.12 285.185C1051.68 285.185 873.358 456.316 873.358 688.887C873.358 919.965 1045.81 1088.18 1284.12 1088.18C1523.88 1088.18 1696.36 919.965 1696.36 688.887C1696.36 457.759 1518.01 285.185 1284.12 285.185ZM1284.12 909.737C1164.27 909.737 1075.09 819.034 1075.09 688.887C1075.09 557.223 1162.78 463.607 1284.12 463.607C1405.44 463.607 1494.63 558.691 1494.63 688.887C1494.63 819.034 1405.44 909.737 1284.12 909.737Z" fill="#CFFF00"/>
<path fill-rule="evenodd" clip-rule="evenodd" d="M4070.73 388.87C3910.48 235.36 3653.05 264.728 3519.73 438.615C3404.97 588.303 3415.23 822.115 3528.73 949.615C3675.25 1114.2 3941.64 1136.87 4070.73 987.006V1080.11H4260.73V296.114H4070.73V388.87ZM3639.73 688.318C3639.73 817.844 3727.74 908.114 3846.01 908.114C3965.72 908.114 4053.73 817.844 4053.73 688.318C4053.73 558.744 3965.72 464.114 3846.01 464.114C3726.27 464.114 3639.73 557.283 3639.73 688.318Z" fill="#CFFF00"/>
<path fill-rule="evenodd" clip-rule="evenodd" d="M2620.07 688.389C2620.07 455.529 2799.7 284.185 3033.84 284.185C3191.37 284.185 3323.88 361.438 3394.41 481.815L3215.73 567.728C3179.52 503.355 3113.57 462.829 3033.84 462.829C2911.61 462.829 2823.27 556.562 2823.27 688.389C2823.27 818.698 2913.11 909.515 3033.84 909.515C3106.67 909.515 3168 877.257 3205.68 823.607L3382.3 915.19C3310.32 1021.82 3185.43 1088.18 3033.84 1088.18C2793.79 1088.18 2620.07 919.756 2620.07 688.389Z" fill="#CFFF00"/>
<path fill-rule="evenodd" clip-rule="evenodd" d="M191 1414.18H1V714.444C0.336731 704.579 0 694.589 0 684.483C0 453.404 172.455 285.185 410.766 285.185C650.521 285.185 823 453.404 823 684.483C823 915.61 644.652 1088.18 410.766 1088.18C329.016 1088.18 253.959 1067.02 191 1029.45V1414.18ZM201.727 684.483C201.727 554.336 290.914 463.632 410.766 463.632C532.086 463.632 621.273 554.336 621.273 684.483C621.273 814.678 532.086 909.762 410.766 909.762C289.422 909.762 201.727 816.146 201.727 684.483Z" fill="#CFFF00"/>
<path fill-rule="evenodd" clip-rule="evenodd" d="M2378.72 4.18457H2568.72V658.925C2569.38 668.79 2569.72 678.78 2569.72 688.887C2569.72 919.965 2397.26 1088.18 2158.95 1088.18C1919.2 1088.18 1746.72 919.965 1746.72 688.887C1746.72 457.759 1925.06 285.185 2158.95 285.185C2240.7 285.185 2315.76 306.353 2378.72 343.917V4.18457ZM2367.99 688.887C2367.99 819.034 2278.8 909.737 2158.95 909.737C2037.63 909.737 1948.44 819.034 1948.44 688.887C1948.44 558.691 2037.63 463.607 2158.95 463.607C2280.29 463.607 2367.99 557.223 2367.99 688.887Z" fill="#CFFF00"/>
<path d="M4370.8 975.637L4458.17 841.565C4458.17 841.565 4542.53 925.925 4667.56 925.925C4721.79 925.925 4768.48 901.822 4768.48 856.629C4768.48 742.14 4394.91 757.205 4394.91 510.15C4394.91 367.038 4522.95 284.185 4688.65 284.185C4861.88 284.185 4946.23 371.558 4946.23 371.558L4875.43 513.162C4875.43 513.162 4804.64 446.879 4687.14 446.879C4637.43 446.879 4589.23 467.969 4589.23 516.175C4589.23 624.638 4962.8 611.081 4962.8 858.136C4962.8 986.182 4851.33 1088.62 4669.06 1088.62C4477.75 1088.62 4370.8 975.637 4370.8 975.637Z" fill="#CFFF00"/>
<path fill-rule="evenodd" clip-rule="evenodd" d="M5249.72 475.185L5249.63 777.633C5249.63 866.5 5316.9 912.531 5385.21 912.531C5385.21 912.531 5405.32 913.031 5418.75 908.192C5418.96 908.115 5419.43 907.992 5420.12 907.809C5426.66 906.086 5453.4 899.032 5479.52 875C5496.3 897.999 5571.88 1000.02 5571.88 1000.02C5568.36 1002.87 5564.78 1005.84 5561.1 1008.88C5519.36 1043.45 5465.34 1088.18 5356.73 1088.18C5198.88 1088.18 5059.88 987.5 5059.88 746.361L5059.88 0H5249.88L5249.78 285.185H5479.88V475.185H5249.72Z" fill="#CFFF00"/>
</svg>
