<?xml version="1.0" encoding="utf-8"?><svg xmlns="http://www.w3.org/2000/svg" version="1.1" xmlns:xlink="http://www.w3.org/1999/xlink" viewBox="0 0 279 279"><rect width="279" height="279" fill="#ffffff"></rect><path shape-rendering="geometricPrecision" d="M 9 9 v 63 h 63 v -63 h -63 z M 18 18 v 45 h 45 v -45 h -45 z M 27 27 v 27 h 27 v -27 h -27 z M 270 9 v 63 h -63 v -63 h 63 z M 261 18 v 45 h -45 v -45 h 45 z M 252 27 v 27 h -27 v -27 h 27 z M 9 270 v -63 h 63 v 63 h -63 z M 18 261 v -45 h 45 v 45 h -45 z M 27 252 v -27 h 27 v 27 h -27 z" fill-rule="evenodd" fill="#000000"/><path shape-rendering="geometricPrecision" d="M 9 144 v 9 h 9 v -9 h -9 z M 9 153 v 9 h 9 v -9 h -9 z M 9 171 v 9 h 9 v -9 h -9 z M 9 180 v 9 h 9 v -9 h -9 z M 9 189 v 9 h 9 v -9 h -9 z M 18 99 v 9 h 9 v -9 h -9 z M 18 162 v 9 h 9 v -9 h -9 z M 18 171 v 9 h 9 v -9 h -9 z M 27 81 v 9 h 9 v -9 h -9 z M 27 90 v 9 h 9 v -9 h -9 z M 27 99 v 9 h 9 v -9 h -9 z M 27 117 v 9 h 9 v -9 h -9 z M 27 135 v 9 h 9 v -9 h -9 z M 27 153 v 9 h 9 v -9 h -9 z M 27 171 v 9 h 9 v -9 h -9 z M 27 180 v 9 h 9 v -9 h -9 z M 27 189 v 9 h 9 v -9 h -9 z M 36 81 v 9 h 9 v -9 h -9 z M 36 153 v 9 h 9 v -9 h -9 z M 36 162 v 9 h 9 v -9 h -9 z M 36 180 v 9 h 9 v -9 h -9 z M 45 81 v 9 h 9 v -9 h -9 z M 45 117 v 9 h 9 v -9 h -9 z M 45 126 v 9 h 9 v -9 h -9 z M 45 135 v 9 h 9 v -9 h -9 z M 45 144 v 9 h 9 v -9 h -9 z M 45 171 v 9 h 9 v -9 h -9 z M 45 180 v 9 h 9 v -9 h -9 z M 54 81 v 9 h 9 v -9 h -9 z M 54 99 v 9 h 9 v -9 h -9 z M 54 108 v 9 h 9 v -9 h -9 z M 54 117 v 9 h 9 v -9 h -9 z M 54 126 v 9 h 9 v -9 h -9 z M 54 135 v 9 h 9 v -9 h -9 z M 54 144 v 9 h 9 v -9 h -9 z M 54 153 v 9 h 9 v -9 h -9 z M 54 171 v 9 h 9 v -9 h -9 z M 63 81 v 9 h 9 v -9 h -9 z M 63 99 v 9 h 9 v -9 h -9 z M 63 117 v 9 h 9 v -9 h -9 z M 63 135 v 9 h 9 v -9 h -9 z M 63 153 v 9 h 9 v -9 h -9 z M 63 171 v 9 h 9 v -9 h -9 z M 63 189 v 9 h 9 v -9 h -9 z M 72 81 v 9 h 9 v -9 h -9 z M 72 99 v 9 h 9 v -9 h -9 z M 72 126 v 9 h 9 v -9 h -9 z M 72 144 v 9 h 9 v -9 h -9 z M 72 180 v 9 h 9 v -9 h -9 z M 81 9 v 9 h 9 v -9 h -9 z M 81 27 v 9 h 9 v -9 h -9 z M 81 36 v 9 h 9 v -9 h -9 z M 81 45 v 9 h 9 v -9 h -9 z M 81 54 v 9 h 9 v -9 h -9 z M 81 63 v 9 h 9 v -9 h -9 z M 81 135 v 9 h 9 v -9 h -9 z M 81 144 v 9 h 9 v -9 h -9 z M 81 162 v 9 h 9 v -9 h -9 z M 81 189 v 9 h 9 v -9 h -9 z M 81 207 v 9 h 9 v -9 h -9 z M 81 216 v 9 h 9 v -9 h -9 z M 81 225 v 9 h 9 v -9 h -9 z M 81 234 v 9 h 9 v -9 h -9 z M 81 243 v 9 h 9 v -9 h -9 z M 90 9 v 9 h 9 v -9 h -9 z M 90 18 v 9 h 9 v -9 h -9 z M 90 45 v 9 h 9 v -9 h -9 z M 90 54 v 9 h 9 v -9 h -9 z M 90 99 v 9 h 9 v -9 h -9 z M 90 117 v 9 h 9 v -9 h -9 z M 90 144 v 9 h 9 v -9 h -9 z M 90 153 v 9 h 9 v -9 h -9 z M 90 180 v 9 h 9 v -9 h -9 z M 90 189 v 9 h 9 v -9 h -9 z M 90 198 v 9 h 9 v -9 h -9 z M 90 207 v 9 h 9 v -9 h -9 z M 90 216 v 9 h 9 v -9 h -9 z M 90 225 v 9 h 9 v -9 h -9 z M 90 261 v 9 h 9 v -9 h -9 z M 99 9 v 9 h 9 v -9 h -9 z M 99 27 v 9 h 9 v -9 h -9 z M 99 36 v 9 h 9 v -9 h -9 z M 99 54 v 9 h 9 v -9 h -9 z M 99 63 v 9 h 9 v -9 h -9 z M 99 108 v 9 h 9 v -9 h -9 z M 99 162 v 9 h 9 v -9 h -9 z M 99 171 v 9 h 9 v -9 h -9 z M 99 189 v 9 h 9 v -9 h -9 z M 99 207 v 9 h 9 v -9 h -9 z M 108 9 v 9 h 9 v -9 h -9 z M 108 36 v 9 h 9 v -9 h -9 z M 108 72 v 9 h 9 v -9 h -9 z M 108 81 v 9 h 9 v -9 h -9 z M 108 90 v 9 h 9 v -9 h -9 z M 108 99 v 9 h 9 v -9 h -9 z M 108 135 v 9 h 9 v -9 h -9 z M 108 153 v 9 h 9 v -9 h -9 z M 108 171 v 9 h 9 v -9 h -9 z M 108 189 v 9 h 9 v -9 h -9 z M 108 207 v 9 h 9 v -9 h -9 z M 108 225 v 9 h 9 v -9 h -9 z M 108 234 v 9 h 9 v -9 h -9 z M 108 252 v 9 h 9 v -9 h -9 z M 117 9 v 9 h 9 v -9 h -9 z M 117 18 v 9 h 9 v -9 h -9 z M 117 63 v 9 h 9 v -9 h -9 z M 117 72 v 9 h 9 v -9 h -9 z M 117 90 v 9 h 9 v -9 h -9 z M 117 153 v 9 h 9 v -9 h -9 z M 117 162 v 9 h 9 v -9 h -9 z M 117 171 v 9 h 9 v -9 h -9 z M 117 216 v 9 h 9 v -9 h -9 z M 117 234 v 9 h 9 v -9 h -9 z M 117 243 v 9 h 9 v -9 h -9 z M 126 9 v 9 h 9 v -9 h -9 z M 126 45 v 9 h 9 v -9 h -9 z M 126 54 v 9 h 9 v -9 h -9 z M 126 72 v 9 h 9 v -9 h -9 z M 126 90 v 9 h 9 v -9 h -9 z M 126 117 v 9 h 9 v -9 h -9 z M 126 126 v 9 h 9 v -9 h -9 z M 126 135 v 9 h 9 v -9 h -9 z M 126 144 v 9 h 9 v -9 h -9 z M 126 162 v 9 h 9 v -9 h -9 z M 126 171 v 9 h 9 v -9 h -9 z M 126 180 v 9 h 9 v -9 h -9 z M 126 189 v 9 h 9 v -9 h -9 z M 126 198 v 9 h 9 v -9 h -9 z M 126 207 v 9 h 9 v -9 h -9 z M 126 216 v 9 h 9 v -9 h -9 z M 126 225 v 9 h 9 v -9 h -9 z M 126 261 v 9 h 9 v -9 h -9 z M 135 9 v 9 h 9 v -9 h -9 z M 135 45 v 9 h 9 v -9 h -9 z M 135 63 v 9 h 9 v -9 h -9 z M 135 72 v 9 h 9 v -9 h -9 z M 135 90 v 9 h 9 v -9 h -9 z M 135 99 v 9 h 9 v -9 h -9 z M 135 126 v 9 h 9 v -9 h -9 z M 135 135 v 9 h 9 v -9 h -9 z M 135 144 v 9 h 9 v -9 h -9 z M 135 153 v 9 h 9 v -9 h -9 z M 135 162 v 9 h 9 v -9 h -9 z M 135 189 v 9 h 9 v -9 h -9 z M 135 225 v 9 h 9 v -9 h -9 z M 135 234 v 9 h 9 v -9 h -9 z M 135 243 v 9 h 9 v -9 h -9 z M 144 9 v 9 h 9 v -9 h -9 z M 144 27 v 9 h 9 v -9 h -9 z M 144 36 v 9 h 9 v -9 h -9 z M 144 45 v 9 h 9 v -9 h -9 z M 144 72 v 9 h 9 v -9 h -9 z M 144 81 v 9 h 9 v -9 h -9 z M 144 99 v 9 h 9 v -9 h -9 z M 144 108 v 9 h 9 v -9 h -9 z M 144 117 v 9 h 9 v -9 h -9 z M 144 126 v 9 h 9 v -9 h -9 z M 144 144 v 9 h 9 v -9 h -9 z M 144 207 v 9 h 9 v -9 h -9 z M 144 225 v 9 h 9 v -9 h -9 z M 144 252 v 9 h 9 v -9 h -9 z M 153 18 v 9 h 9 v -9 h -9 z M 153 27 v 9 h 9 v -9 h -9 z M 153 54 v 9 h 9 v -9 h -9 z M 153 63 v 9 h 9 v -9 h -9 z M 153 72 v 9 h 9 v -9 h -9 z M 153 81 v 9 h 9 v -9 h -9 z M 153 90 v 9 h 9 v -9 h -9 z M 153 99 v 9 h 9 v -9 h -9 z M 153 108 v 9 h 9 v -9 h -9 z M 153 135 v 9 h 9 v -9 h -9 z M 153 144 v 9 h 9 v -9 h -9 z M 153 162 v 9 h 9 v -9 h -9 z M 153 180 v 9 h 9 v -9 h -9 z M 153 216 v 9 h 9 v -9 h -9 z M 153 234 v 9 h 9 v -9 h -9 z M 153 243 v 9 h 9 v -9 h -9 z M 162 9 v 9 h 9 v -9 h -9 z M 162 18 v 9 h 9 v -9 h -9 z M 162 27 v 9 h 9 v -9 h -9 z M 162 72 v 9 h 9 v -9 h -9 z M 162 90 v 9 h 9 v -9 h -9 z M 162 99 v 9 h 9 v -9 h -9 z M 162 108 v 9 h 9 v -9 h -9 z M 162 144 v 9 h 9 v -9 h -9 z M 162 153 v 9 h 9 v -9 h -9 z M 162 171 v 9 h 9 v -9 h -9 z M 162 180 v 9 h 9 v -9 h -9 z M 162 189 v 9 h 9 v -9 h -9 z M 162 207 v 9 h 9 v -9 h -9 z M 162 216 v 9 h 9 v -9 h -9 z M 162 225 v 9 h 9 v -9 h -9 z M 162 243 v 9 h 9 v -9 h -9 z M 162 261 v 9 h 9 v -9 h -9 z M 171 9 v 9 h 9 v -9 h -9 z M 171 54 v 9 h 9 v -9 h -9 z M 171 63 v 9 h 9 v -9 h -9 z M 171 90 v 9 h 9 v -9 h -9 z M 171 99 v 9 h 9 v -9 h -9 z M 171 108 v 9 h 9 v -9 h -9 z M 171 162 v 9 h 9 v -9 h -9 z M 171 171 v 9 h 9 v -9 h -9 z M 171 189 v 9 h 9 v -9 h -9 z M 171 198 v 9 h 9 v -9 h -9 z M 171 243 v 9 h 9 v -9 h -9 z M 180 9 v 9 h 9 v -9 h -9 z M 180 45 v 9 h 9 v -9 h -9 z M 180 54 v 9 h 9 v -9 h -9 z M 180 81 v 9 h 9 v -9 h -9 z M 180 117 v 9 h 9 v -9 h -9 z M 180 135 v 9 h 9 v -9 h -9 z M 180 153 v 9 h 9 v -9 h -9 z M 180 189 v 9 h 9 v -9 h -9 z M 180 198 v 9 h 9 v -9 h -9 z M 180 207 v 9 h 9 v -9 h -9 z M 180 216 v 9 h 9 v -9 h -9 z M 180 252 v 9 h 9 v -9 h -9 z M 189 9 v 9 h 9 v -9 h -9 z M 189 27 v 9 h 9 v -9 h -9 z M 189 36 v 9 h 9 v -9 h -9 z M 189 45 v 9 h 9 v -9 h -9 z M 189 63 v 9 h 9 v -9 h -9 z M 189 81 v 9 h 9 v -9 h -9 z M 189 90 v 9 h 9 v -9 h -9 z M 189 99 v 9 h 9 v -9 h -9 z M 189 153 v 9 h 9 v -9 h -9 z M 189 162 v 9 h 9 v -9 h -9 z M 189 180 v 9 h 9 v -9 h -9 z M 189 189 v 9 h 9 v -9 h -9 z M 189 198 v 9 h 9 v -9 h -9 z M 189 207 v 9 h 9 v -9 h -9 z M 189 216 v 9 h 9 v -9 h -9 z M 189 225 v 9 h 9 v -9 h -9 z M 189 243 v 9 h 9 v -9 h -9 z M 189 252 v 9 h 9 v -9 h -9 z M 189 261 v 9 h 9 v -9 h -9 z M 198 81 v 9 h 9 v -9 h -9 z M 198 90 v 9 h 9 v -9 h -9 z M 198 117 v 9 h 9 v -9 h -9 z M 198 126 v 9 h 9 v -9 h -9 z M 198 135 v 9 h 9 v -9 h -9 z M 198 144 v 9 h 9 v -9 h -9 z M 198 162 v 9 h 9 v -9 h -9 z M 198 171 v 9 h 9 v -9 h -9 z M 198 189 v 9 h 9 v -9 h -9 z M 198 225 v 9 h 9 v -9 h -9 z M 198 234 v 9 h 9 v -9 h -9 z M 198 243 v 9 h 9 v -9 h -9 z M 198 252 v 9 h 9 v -9 h -9 z M 198 261 v 9 h 9 v -9 h -9 z M 207 90 v 9 h 9 v -9 h -9 z M 207 126 v 9 h 9 v -9 h -9 z M 207 135 v 9 h 9 v -9 h -9 z M 207 144 v 9 h 9 v -9 h -9 z M 207 153 v 9 h 9 v -9 h -9 z M 207 162 v 9 h 9 v -9 h -9 z M 207 180 v 9 h 9 v -9 h -9 z M 207 189 v 9 h 9 v -9 h -9 z M 207 207 v 9 h 9 v -9 h -9 z M 207 225 v 9 h 9 v -9 h -9 z M 207 234 v 9 h 9 v -9 h -9 z M 207 243 v 9 h 9 v -9 h -9 z M 216 81 v 9 h 9 v -9 h -9 z M 216 90 v 9 h 9 v -9 h -9 z M 216 108 v 9 h 9 v -9 h -9 z M 216 126 v 9 h 9 v -9 h -9 z M 216 144 v 9 h 9 v -9 h -9 z M 216 180 v 9 h 9 v -9 h -9 z M 216 189 v 9 h 9 v -9 h -9 z M 216 225 v 9 h 9 v -9 h -9 z M 225 81 v 9 h 9 v -9 h -9 z M 225 99 v 9 h 9 v -9 h -9 z M 225 108 v 9 h 9 v -9 h -9 z M 225 135 v 9 h 9 v -9 h -9 z M 225 144 v 9 h 9 v -9 h -9 z M 225 162 v 9 h 9 v -9 h -9 z M 225 189 v 9 h 9 v -9 h -9 z M 225 198 v 9 h 9 v -9 h -9 z M 225 207 v 9 h 9 v -9 h -9 z M 225 216 v 9 h 9 v -9 h -9 z M 225 225 v 9 h 9 v -9 h -9 z M 225 243 v 9 h 9 v -9 h -9 z M 225 261 v 9 h 9 v -9 h -9 z M 234 81 v 9 h 9 v -9 h -9 z M 234 99 v 9 h 9 v -9 h -9 z M 234 108 v 9 h 9 v -9 h -9 z M 234 144 v 9 h 9 v -9 h -9 z M 234 153 v 9 h 9 v -9 h -9 z M 234 162 v 9 h 9 v -9 h -9 z M 234 171 v 9 h 9 v -9 h -9 z M 234 180 v 9 h 9 v -9 h -9 z M 234 234 v 9 h 9 v -9 h -9 z M 234 243 v 9 h 9 v -9 h -9 z M 243 81 v 9 h 9 v -9 h -9 z M 243 99 v 9 h 9 v -9 h -9 z M 243 162 v 9 h 9 v -9 h -9 z M 243 180 v 9 h 9 v -9 h -9 z M 243 189 v 9 h 9 v -9 h -9 z M 243 198 v 9 h 9 v -9 h -9 z M 243 207 v 9 h 9 v -9 h -9 z M 243 225 v 9 h 9 v -9 h -9 z M 243 234 v 9 h 9 v -9 h -9 z M 243 243 v 9 h 9 v -9 h -9 z M 243 252 v 9 h 9 v -9 h -9 z M 252 99 v 9 h 9 v -9 h -9 z M 252 117 v 9 h 9 v -9 h -9 z M 252 135 v 9 h 9 v -9 h -9 z M 252 153 v 9 h 9 v -9 h -9 z M 252 171 v 9 h 9 v -9 h -9 z M 252 189 v 9 h 9 v -9 h -9 z M 252 198 v 9 h 9 v -9 h -9 z M 252 225 v 9 h 9 v -9 h -9 z M 252 234 v 9 h 9 v -9 h -9 z M 252 252 v 9 h 9 v -9 h -9 z M 261 81 v 9 h 9 v -9 h -9 z M 261 90 v 9 h 9 v -9 h -9 z M 261 117 v 9 h 9 v -9 h -9 z M 261 126 v 9 h 9 v -9 h -9 z M 261 171 v 9 h 9 v -9 h -9 z M 261 180 v 9 h 9 v -9 h -9 z M 261 216 v 9 h 9 v -9 h -9 z M 261 243 v 9 h 9 v -9 h -9 z" fill="#000000"/></svg>