<?xml version="1.0" encoding="utf-8"?>
<!-- Generator: Adobe Illustrator 26.0.3, SVG Export Plug-In . SVG Version: 6.00 Build 0)  -->
<svg version="1.0" id="katman_1" xmlns="http://www.w3.org/2000/svg" xmlns:xlink="http://www.w3.org/1999/xlink" x="0px" y="0px"
	 viewBox="42 162 515 127" style="enable-background:new 42 162 515 127;" xml:space="preserve">
<style type="text/css">
	.st0{fill-rule:evenodd;clip-rule:evenodd;fill:#010202;stroke:#222225;stroke-width:1.5529;}
	.st1{fill-rule:evenodd;clip-rule:evenodd;fill:url(#SVGID_1_);}
	.st2{fill:none;}
	.st3{fill:#FFFFFF;}
</style>
<path id="Path" class="st0" d="M526.3,164H66.9c-2.1,0-4.1,0.2-6.1,0.5c-2,0.3-3.9,1-5.7,1.9c-1.8,0.9-3.4,2.1-4.8,3.6
	c-1.4,1.4-2.6,3.1-3.5,4.8c-0.9,1.8-1.5,3.7-1.9,5.7c-0.4,2-0.5,4.1-0.6,6.1c0,0.4,0,0.9,0,1.4c0,0.2,0,0.2,0,0.5c0,0.2,0,0.7,0,0.9
	v71.8c0,0.3,0,0.5,0,0.9c0,0.5,0,0.2,0,0.5c0,0.6,0,1,0,1.4c0,2,0.2,4.1,0.6,6.1c0.3,2,1,3.9,1.9,5.7c0.9,1.8,2.1,3.4,3.5,4.8
	c1.4,1.4,3,2.6,4.8,3.5c1.8,0.9,3.7,1.5,5.7,1.9c2,0.3,4.1,0.5,6.1,0.5h2.8h460h2.8c2,0,4.1-0.2,6.1-0.5c2-0.3,3.9-1,5.7-1.9
	c3.6-1.8,6.5-4.8,8.4-8.3c0.9-1.8,1.5-3.7,1.9-5.7c0.3-2,0.5-4,0.6-6.1c0-0.5,0-0.9,0-1.4v-1.4c0-0.2,0-0.5,0-0.7v-67.7
	c0-1.7,0-2.4,0-3.4v-1.4c0-0.5,0-1,0-1.4c0-2.1-0.2-4.1-0.6-6.1c-0.3-2-1-3.9-1.8-5.7c-0.9-1.8-2.1-3.4-3.5-4.8
	c-1.4-1.4-3-2.6-4.8-3.5c-1.8-0.9-3.7-1.5-5.7-1.9c-2-0.3-4-0.5-6.1-0.5L526.3,164L526.3,164z"/>
<g id="US">
	
		<linearGradient id="SVGID_1_" gradientUnits="userSpaceOnUse" x1="225.1328" y1="341.1018" x2="225.1328" y2="420.2011" gradientTransform="matrix(1 0 0 1 -120.9449 -157.7578)">
		<stop  offset="0" style="stop-color:#AE6AA9"/>
		<stop  offset="1" style="stop-color:#684092"/>
	</linearGradient>
	<path class="st1" d="M142.2,251.9c-2,4.6-5.9,8.1-10.6,9.5c-3.1,0.8-6.3,1.1-9.6,1H86.4c-3.2,0.1-6.4-0.2-9.6-1
		c-4.8-1.4-8.7-4.9-10.6-9.5c-1.2-3.6-1.7-7.4-1.6-11.2l0,0v-35.6l0,0c-0.2-3.8,0.3-7.6,1.6-11.2c2-4.6,5.8-8.1,10.6-9.5
		c3.1-0.8,6.3-1.1,9.6-1H122c3.2-0.1,6.4,0.2,9.6,1c4.8,1.5,8.7,5,10.6,9.6c1.2,3.6,1.7,7.4,1.6,11.2v35.5
		C143.9,244.5,143.4,248.3,142.2,251.9z"/>
	<path class="st2" d="M142.2,251.9c-2,4.6-5.9,8.1-10.6,9.5c-3.1,0.8-6.3,1.1-9.6,1H86.4c-3.2,0.1-6.4-0.2-9.6-1
		c-4.8-1.4-8.7-4.9-10.6-9.5c-1.2-3.6-1.7-7.4-1.6-11.2l0,0v-35.6l0,0c-0.2-3.8,0.3-7.6,1.6-11.2c2-4.6,5.8-8.1,10.6-9.5
		c3.1-0.8,6.3-1.1,9.6-1H122c3.2-0.1,6.4,0.2,9.6,1c4.8,1.5,8.7,5,10.6,9.6c1.2,3.6,1.7,7.4,1.6,11.2v35.5
		C143.9,244.5,143.4,248.3,142.2,251.9z"/>
	<path class="st3" d="M109.9,228.8c-1.6-1.4-3.6-2.2-5.7-2.1c-2.1-0.1-4.2,0.6-5.7,2.1c-0.6,0.6-1,1.4-1.1,2.3c-0.1,2-0.1,4,0.1,6
		c0.2,2.4,0.6,5.7,1.1,8.9c0.2,1.5,0.5,3,0.9,4.5c0.8,1.9,2.7,3,4.7,2.7c2,0.2,3.9-0.9,4.7-2.7c0.4-1.5,0.7-3,0.9-4.5
		c0.5-3.3,0.9-6.5,1.1-8.9c0.2-2,0.3-4,0.1-6C111,230.2,110.6,229.4,109.9,228.8z M97.7,217.7c0,3.6,2.9,6.5,6.5,6.5
		c3.6,0,6.5-2.9,6.5-6.5c0-3.6-2.9-6.5-6.5-6.5c0,0,0,0,0,0C100.6,211.2,97.7,214.1,97.7,217.7z M104,192.1
		c-15.4,0-27.8,12.5-27.7,27.9c0,11.8,7.5,22.2,18.6,26.1c0.2,0.1,0.4,0,0.5-0.2c0-0.1,0-0.1,0-0.2c-0.2-0.9-0.3-1.9-0.4-2.8
		c0-0.3-0.3-0.6-0.6-0.8c-12.3-5.3-17.9-19.6-12.6-31.9c5.3-12.3,19.6-17.9,31.9-12.6c12.3,5.3,17.9,19.6,12.6,31.9
		c-2.4,5.6-6.9,10.1-12.6,12.6c-0.3,0.1-0.5,0.4-0.6,0.7c-0.1,0.9-0.3,1.9-0.4,2.8c0,0.2,0.1,0.4,0.3,0.4c0.1,0,0.1,0,0.2,0
		c14.5-5.1,22.1-20.9,17-35.4C126.4,199.5,115.9,192.1,104,192.1L104,192.1z M103.6,204.9c8.3-0.3,15.3,6.2,15.6,14.5
		c0.2,4.4-1.6,8.6-4.8,11.6c-0.2,0.2-0.4,0.6-0.4,0.9c0.1,1.1,0.1,2.1,0,3.2c0,0.2,0.2,0.4,0.4,0.4c0.1,0,0.1,0,0.2-0.1
		c8.5-5.8,10.7-17.4,4.9-25.9c-5.8-8.5-17.4-10.7-25.9-4.9c-8.5,5.8-10.7,17.4-4.9,25.9c1.3,1.9,3,3.6,4.9,4.9
		c0.2,0.1,0.4,0.1,0.5-0.1c0-0.1,0.1-0.1,0.1-0.2c-0.1-1.1-0.1-2.1,0-3.2c0-0.3-0.1-0.7-0.4-0.9c-6.1-5.7-6.4-15.2-0.7-21.3
		C95.9,206.7,99.6,205,103.6,204.9L103.6,204.9z"/>
	<path class="st3" d="M186.3,247.5h-14.9l-3.6,10.5h-6.3l14.1-39h6.5l14.1,39h-6.4L186.3,247.5z M172.9,242.6h11.9l-5.8-17.1h-0.2
		L172.9,242.6z"/>
	<path class="st3" d="M226.7,243.8c0,8.8-4.7,14.5-11.9,14.5c-3.7,0.2-7.2-1.7-8.9-5h-0.1v14.1h-5.9v-37.8h5.7v4.7h0.1
		c1.9-3.2,5.3-5.2,9.1-5C221.9,229.3,226.7,235,226.7,243.8z M220.7,243.8c0-5.8-3-9.6-7.5-9.6c-4.5,0-7.5,3.9-7.5,9.6
		c0,5.7,3,9.6,7.5,9.6S220.7,249.6,220.7,243.8L220.7,243.8z"/>
	<path class="st3" d="M258,243.8c0,8.8-4.7,14.5-11.9,14.5c-3.7,0.2-7.2-1.7-8.9-5H237v14.1h-5.8v-37.8h5.7v4.7h0.1
		c1.9-3.2,5.3-5.2,9.1-5C253.2,229.3,258,235,258,243.8z M252,243.8c0-5.8-3-9.6-7.5-9.6s-7.5,3.9-7.5,9.6c0,5.7,3,9.6,7.5,9.6
		C248.9,253.4,252,249.6,252,243.8z"/>
	<path class="st3" d="M262.7,219h5.8v39h-5.8V219z"/>
	<path class="st3" d="M298.9,249.7c-0.8,5.2-5.8,8.7-12.3,8.7c-8.3,0-13.4-5.5-13.4-14.4c0-8.9,5.2-14.7,13.2-14.7s12.8,5.4,12.8,14
		v2h-20.1v0.4c0,4.9,3.1,8,7.7,8c3.2,0,5.8-1.6,6.6-4L298.9,249.7z M279.2,241.2h14.3c-0.1-4.3-2.9-7.2-7-7.2
		c-4-0.1-7.2,3.1-7.3,7.1C279.2,241.1,279.2,241.1,279.2,241.2z"/>
	<path class="st3" d="M330.4,219c6.7-0.3,12.5,4.9,12.8,11.6c0,0.4,0,0.8,0,1.2c0,7.6-5.4,12.9-13,12.9h-8.4V258h-6.1v-39H330.4z
		 M321.8,239.6h7c5.3,0,8.3-2.8,8.3-7.8c0-4.9-3-7.8-8.2-7.8h-7V239.6z"/>
	<path class="st3" d="M345.3,243.8c0-8.9,5.3-14.6,13.5-14.6s13.5,5.6,13.5,14.6s-5.2,14.6-13.5,14.6
		C350.5,258.4,345.3,252.8,345.3,243.8z M366.4,243.8c0-6.2-2.8-9.8-7.5-9.8s-7.5,3.6-7.5,9.8c0,6.1,2.8,9.8,7.5,9.8
		C363.5,253.5,366.4,250,366.4,243.8z"/>
	<path class="st3" d="M376.4,243.8c0-8.8,4.8-14.5,11.9-14.5c3.7-0.2,7.2,1.8,8.9,5h0.1V219h5.9v39h-5.7v-4.8h-0.1
		c-1.8,3.3-5.3,5.3-9.1,5.1C381.3,258.3,376.4,252.6,376.4,243.8z M382.4,243.8c0,5.8,3,9.6,7.5,9.6s7.5-3.8,7.5-9.6
		c0-5.8-3-9.5-7.5-9.5S382.4,238,382.4,243.8z"/>
	<path class="st3" d="M428.1,239.3c-0.5-3.2-3.4-5.5-6.7-5.2c-4.5,0-7.5,3.8-7.5,9.7c0,5.9,3,9.7,7.5,9.7c3.6,0,6-1.8,6.7-5.1h5.6
		c-0.7,6-5.4,10-12.3,10c-8.1,0-13.4-5.5-13.4-14.6s5.3-14.6,13.4-14.6c7.3,0,11.8,4.7,12.4,10.1L428.1,239.3z"/>
	<path class="st3" d="M437.3,249.9c0-5,3.8-8,10.6-8.4l7.8-0.4V239c0-3.1-2.1-4.9-5.6-4.9c-3.2,0-5.5,1.6-6,4h-5.5
		c0.2-5.1,4.9-8.8,11.6-8.8c6.7,0,11.3,3.7,11.3,9.3V258h-5.6v-4.7h-0.1c-1.8,3.2-5.3,5.2-9,5.2C441.2,258.5,437.3,255,437.3,249.9z
		 M455.6,247.4v-2.2l-7,0.4c-3.5,0.2-5.5,1.7-5.5,4.2s2,4.1,5.2,4.1c3.7,0.3,7-2.6,7.3-6.3C455.6,247.5,455.6,247.4,455.6,247.4z"/>
	<path class="st3" d="M477.7,229.2c6.3,0,10.9,3.5,10.9,8.5h-5.5c-0.2-2.5-2.4-4.1-5.6-4.1s-5.3,1.4-5.3,3.7c0,1.7,1.4,2.8,4.4,3.6
		l4.8,1.1c5.7,1.4,7.9,3.5,7.9,7.6c0,5.1-4.9,8.6-11.8,8.6c-6.7,0-11.2-3.4-11.6-8.6h5.8c0.4,2.7,2.6,4.2,6.2,4.2
		c3.6,0,5.7-1.4,5.7-3.7c0-1.8-1.1-2.7-4.1-3.5l-5.1-1.2c-5.1-1.2-7.8-3.9-7.8-7.8C466.6,232.7,471.1,229.2,477.7,229.2z"/>
	<path class="st3" d="M502,222.8v6.8h5.4v4.7H502v15.5c0,2.4,1.1,3.6,3.5,3.6c0.6,0,1.6-0.1,1.9-0.1v4.7c-1.1,0.2-2.2,0.3-3.2,0.3
		c-5.8,0-8-2.2-8-7.7v-16.3H492v-4.5h4.1v-6.8H502z"/>
	<path class="st3" d="M523.1,229.2c6.3,0,10.9,3.5,10.9,8.5h-5.5c-0.2-2.5-2.4-4.1-5.6-4.1s-5.3,1.4-5.3,3.7c0,1.7,1.4,2.8,4.3,3.6
		l4.8,1.1c5.7,1.4,7.9,3.5,7.9,7.6c0,5.1-4.9,8.6-11.8,8.6c-6.9,0-11.2-3.4-11.7-8.6h5.9c0.4,2.7,2.6,4.2,6.1,4.2s5.7-1.4,5.7-3.7
		c0-1.8-1.1-2.7-4.1-3.5l-5.1-1.2c-5.1-1.2-7.8-3.9-7.8-7.8C512,232.7,516.5,229.2,523.1,229.2z"/>
	<path class="st3" d="M176,206.1h-11.7v-18.7h2.9v16.1h8.8V206.1z"/>
	<path class="st3" d="M179.4,187.8c0.1-1,1-1.7,2-1.6c0.9,0.1,1.6,0.8,1.6,1.6c-0.1,1-1,1.7-2,1.6
		C180.2,189.4,179.5,188.7,179.4,187.8z M179.8,192h2.8v14.1h-2.8V192z"/>
	<path class="st3" d="M192.3,191.7c3.1,0,5.3,1.6,5.5,4h-2.7c-0.3-1-1.3-1.7-2.9-1.7c-1.6,0-2.8,0.7-2.8,1.8c0,0.8,0.7,1.4,2.2,1.7
		l2.4,0.5c2.7,0.6,3.9,1.8,3.9,3.9c0,2.7-2.5,4.5-5.9,4.5s-5.6-1.6-5.8-4h2.8c0.5,1.2,1.8,2,3.1,1.8c1.7,0,3-0.8,3-1.9
		c0-0.8-0.7-1.4-2.1-1.7l-2.5-0.6c-2.7-0.6-3.9-1.8-3.9-3.9C186.8,193.5,189.1,191.7,192.3,191.7z"/>
	<path class="st3" d="M205.5,188.4v3.6h3.1v2.4h-3.1v7.3c0,1.5,0.6,2.1,2,2.1c0.4,0,0.7,0,1.1,0v2.3c-0.5,0.1-1,0.1-1.6,0.1
		c-3.1,0-4.3-1.1-4.3-3.8v-8.1h-2.3V192h2.3v-3.6H205.5z"/>
	<path class="st3" d="M224.1,202.3c-0.6,2.5-2.9,4.1-6.2,4.1c-4.1,0-6.5-2.8-6.5-7.3c0-4.5,2.5-7.4,6.5-7.4c4,0,6.3,2.7,6.3,7.1v1
		h-9.8v0.2c-0.2,2.1,1.3,3.9,3.4,4c0.1,0,0.2,0,0.4,0c1.4,0.2,2.7-0.5,3.4-1.7H224.1z M214.3,197.7h7.1c0.1-1.9-1.3-3.5-3.2-3.7
		c-0.1,0-0.2,0-0.3,0C216,194,214.3,195.6,214.3,197.7C214.3,197.7,214.3,197.7,214.3,197.7z"/>
	<path class="st3" d="M228,192h2.7v2.3h0.2c0.7-1.7,2.4-2.7,4.2-2.5c3.1,0,4.9,1.9,4.9,5.3v9.2h-2.8v-8.5c0-2.3-1-3.4-3.1-3.4
		c-1.8-0.1-3.3,1.3-3.4,3.1c0,0.2,0,0.3,0,0.5v8.3h-2.8L228,192z"/>
	<path class="st3" d="M251.3,199c0-4.6,2.5-7.3,6.7-7.3c4.1,0,6.7,2.8,6.7,7.3s-2.5,7.3-6.7,7.3C253.8,206.3,251.3,203.6,251.3,199z
		 M261.8,199c0-3.1-1.4-4.9-3.8-4.9c-2.4,0-3.8,1.8-3.8,4.9s1.4,4.9,3.8,4.9C260.4,203.9,261.8,202.1,261.8,199z"/>
	<path class="st3" d="M268.4,192h2.7v2.3h0.2c0.7-1.7,2.4-2.7,4.2-2.5c3.1,0,4.9,1.9,4.9,5.3v9.2h-2.8v-8.5c0-2.3-1-3.4-3.1-3.4
		c-1.8-0.1-3.3,1.3-3.4,3.1c0,0.2,0,0.3,0,0.5v8.3h-2.8L268.4,192z"/>
</g>
</svg>
