<svg width="64" height="64" fill="none" xmlns="http://www.w3.org/2000/svg">
<path d="M21.8035 18.154C25.9308 21.2821 30.3702 27.6246 32.0001 31.0284C33.6301 27.6249 38.0693 21.2821 42.1967 18.154C45.1748 15.8969 50 14.1504 50 19.7077C50 20.8175 49.3697 29.0311 49 30.3645C47.715 35.0005 43.0325 36.1829 38.8673 35.4672C46.148 36.7182 48.0001 40.8619 44.0002 45.0056C36.4036 52.8752 33.0817 43.031 32.2301 40.5086C32.0741 40.0462 32.0011 39.8298 32 40.0138C31.9989 39.8298 31.9259 40.0462 31.7699 40.5086C30.9187 43.031 27.5968 52.8755 19.9998 45.0056C15.9999 40.8619 17.8519 36.718 25.1327 35.4672C20.9674 36.1829 16.2848 35.0005 15 30.3645C14.6303 29.031 14 20.8174 14 19.7077C14 14.1504 18.8253 15.8969 21.8033 18.154H21.8035Z" fill="url(#paint0_linear_2425_13236)"/>
<defs>
<linearGradient id="paint0_linear_2425_13236" x1="20" y1="17.5" x2="43" y2="44.5" gradientUnits="userSpaceOnUse">
<stop stop-color="#1180FF"/>
<stop offset="1" stop-color="#52B2FF"/>
</linearGradient>
</defs>
</svg>
