<svg width="64" height="64" fill="none" xmlns="http://www.w3.org/2000/svg">
<path d="M46.2893 35.1837C45.8505 37.441 42.3594 39.9114 38.3499 40.3902C36.2592 40.6397 34.2006 40.869 32.0056 40.7683C28.4157 40.6038 25.5831 39.9114 25.5831 39.9114C25.5831 40.2609 25.6046 40.5936 25.6477 40.9048C26.1144 44.4476 29.1607 44.6598 32.0462 44.7588C34.9587 44.8584 37.552 44.0407 37.552 44.0407L37.6717 46.6737C37.6717 46.6737 35.6345 47.7676 32.0056 47.9688C30.0044 48.0788 27.5197 47.9185 24.6257 47.1525C18.3491 45.4912 17.2696 38.8006 17.1045 32.0119C17.0541 29.9963 17.0851 28.0957 17.0851 26.5061C17.0851 19.5643 21.6334 17.5296 21.6334 17.5296C23.9268 16.4764 27.8619 16.0334 31.953 16H32.0535C36.1445 16.0334 40.0823 16.4764 42.3755 17.5296C42.3755 17.5296 46.9235 19.5643 46.9235 26.5061C46.9235 26.5061 46.9806 31.6278 46.2893 35.1837Z" fill="#2B90D9"/>
<path d="M41.559 27.0443V35.4497H38.229V27.2914C38.229 25.5716 37.5054 24.6987 36.058 24.6987C34.4578 24.6987 33.6557 25.7342 33.6557 27.7817V32.2472H30.3454V27.7817C30.3454 25.7342 29.5431 24.6987 27.9429 24.6987C26.4955 24.6987 25.7719 25.5716 25.7719 27.2914V35.4497H22.4419V27.0443C22.4419 25.3265 22.8793 23.9614 23.7579 22.9514C24.6639 21.9414 25.8504 21.4237 27.3232 21.4237C29.0273 21.4237 30.3178 22.0787 31.171 23.3888L32.0005 24.7793L32.8301 23.3888C33.6831 22.0787 34.9736 21.4237 36.6778 21.4237C38.1505 21.4237 39.337 21.9414 40.2432 22.9514C41.1216 23.9614 41.559 25.3265 41.559 27.0443Z" fill="white"/>
</svg>
