<svg width="64" height="64" fill="none" xmlns="http://www.w3.org/2000/svg">
<path fill-rule="evenodd" clip-rule="evenodd" d="M32 16C23.1634 16 16 23.1634 16 32C16 40.8366 23.1634 48 32 48C40.8366 48 48 40.8366 48 32C48 23.1634 40.8366 16 32 16ZM37.4043 24.47C37.195 24.5704 37.0437 24.6429 36.9374 24.6252C36.6634 24.6024 36.4978 24.4043 36.3005 24.1682C35.9577 23.7581 35.5191 23.2334 34.2499 23.3127C33.3855 23.3792 32.8041 23.9055 32.3175 24.346C31.8893 24.7336 31.5345 25.0547 31.1249 24.9377C30.7959 24.8202 30.4138 24.6143 30.022 24.4031C29.3717 24.0527 28.6944 23.6877 28.1874 23.6877C25.5059 23.746 24.673 25.8704 23.9645 27.6774C23.9134 27.8078 23.8629 27.9365 23.8124 28.0627C23.4374 29.0627 21.6249 34.6877 21.3124 36.1252C20.4374 39.8752 25.4374 40.9377 26.6249 38.4377C27.1405 37.3379 27.9395 35.2176 28.6375 33.3654C29.2088 31.8493 29.7124 30.5128 29.9374 30.0627L29.943 30.0503C30.1939 29.4857 30.6313 28.5011 31.4999 28.6252C32.7337 28.808 31.5621 31.563 30.5742 33.8863C30.2108 34.7408 29.8723 35.537 29.6874 36.1252C29.1874 37.8127 31.4999 38.8127 32.7499 36.8127C33.2499 36.0627 35.6249 31.4377 35.9999 30.6877C36.0331 30.6148 36.0733 30.5221 36.1197 30.4151C36.5107 29.5139 37.3428 27.5959 38.1249 27.8752C39.2078 28.269 38.0811 30.2522 37.2482 31.7182C37.0235 32.1136 36.8202 32.4714 36.6874 32.7502C35.1249 35.3127 34.3124 38.7502 37.5624 40.1252C38.3124 40.5002 42.1874 41.3752 42.3749 39.6877C42.5715 38.4098 41.5313 38.2915 40.5308 38.1776C40.2591 38.1467 39.9902 38.1161 39.7499 38.0627C37.2499 37.5627 39.9374 32.4377 40.5624 31.2502C40.5969 31.1763 40.6466 31.0767 40.7071 30.9554C41.4134 29.5389 43.5939 25.1664 40.3124 24.1877C38.8342 23.7845 37.9338 24.2162 37.4043 24.47Z" fill="#E92980"/>
</svg>
